<?xml version="1.0" encoding="iso-8859-1"?>
<!-- Generator: Adobe Illustrator 19.0.0, SVG Export Plug-In . SVG Version: 6.00 Build 0)  -->
<svg version="1.1" id="Layer_1" xmlns="http://www.w3.org/2000/svg" xmlns:xlink="http://www.w3.org/1999/xlink" x="0px" y="0px"
	 viewBox="0 0 512 512" style="enable-background:new 0 0 512 512;" xml:space="preserve">
  <title>Pause</title>
  <path id="svg_4" d="m205.581,126.674c-19.525,0 -35.41,15.884 -35.41,35.409l0,187.835c0,19.524 15.884,35.409 35.41,35.409c19.524,0 35.409,-15.884 35.409,-35.409l0,-187.835c0,-19.525 -15.884,-35.409 -35.409,-35.409zm15.01,223.243c0,8.277 -6.734,15.01 -15.01,15.01c-8.277,0 -15.011,-6.734 -15.011,-15.01l0,-187.834c0,-8.277 6.735,-15.01 15.011,-15.01c8.278,0 15.01,6.734 15.01,15.01l0,187.834z"/>
  <path id="svg_5" d="m306.419,126.674c-19.524,0 -35.409,15.884 -35.409,35.409l0,187.835c0,19.524 15.884,35.409 35.409,35.409c19.524,0 35.409,-15.884 35.41,-35.409l0,-187.835c-0.001,-19.525 -15.885,-35.409 -35.41,-35.409zm15.011,223.243c0,8.277 -6.734,15.01 -15.011,15.01s-15.01,-6.734 -15.01,-15.01l0,-187.834c0,-8.277 6.734,-15.01 15.01,-15.01s15.01,6.734 15.011,15.01l0,187.834z"/>
  <path id="svg_1" d="m437.019,74.98c-48.352,-48.352 -112.638,-74.98 -181.019,-74.98s-132.667,26.628 -181.018,74.98c-48.354,48.353 -74.982,112.64 -74.982,181.02s26.628,132.667 74.982,181.02c48.351,48.352 112.637,74.98 181.018,74.98s132.667,-26.628 181.019,-74.98c48.353,-48.353 74.981,-112.64 74.981,-181.02s-26.628,-132.667 -74.981,-181.02zm-181.019,416.622c-129.911,0 -235.602,-105.69 -235.602,-235.602s105.691,-235.602 235.602,-235.602s235.602,105.691 235.602,235.602s-105.691,235.602 -235.602,235.602z"/>
  <path id="svg_2" class="circle_buffer" d="m450.364,178.795c-21.665,-54.498 -65.541,-97.656 -120.378,-118.408c-5.269,-1.994 -11.154,0.661 -13.149,5.929s0.66,11.155 5.929,13.149c49.491,18.728 89.089,57.68 108.642,106.866c1.59,3.998 5.425,6.434 9.481,6.434c1.254,0 2.529,-0.234 3.765,-0.724c5.234,-2.081 7.791,-8.012 5.71,-13.246z"/>
  <path id="svg_3" class="circle_buffer" d="m291.371,49.898c-11.605,-1.979 -23.504,-2.981 -35.371,-2.981c-5.632,0 -10.199,4.566 -10.199,10.199s4.567,10.199 10.199,10.199c10.721,0 21.468,0.906 31.943,2.691c0.58,0.099 1.157,0.147 1.726,0.147c4.88,0 9.194,-3.514 10.042,-8.486c0.946,-5.554 -2.788,-10.823 -8.34,-11.769z"/>
 
</svg>
