<?xml version="1.0" encoding="iso-8859-1"?>
<!-- Generator: Adobe Illustrator 19.0.0, SVG Export Plug-In . SVG Version: 6.00 Build 0)  -->
<svg version="1.1" id="Layer_1" xmlns="http://www.w3.org/2000/svg" xmlns:xlink="http://www.w3.org/1999/xlink" x="0px" y="0px"
	 viewBox="0 0 512 512" style="enable-background:new 0 0 512 512;" xml:space="preserve">
 <g>
  <title>Play</title>
  <path id="svg_2" d="m370.635,228.558l-146.584,-99.128c-10.178,-6.882 -23.241,-7.577 -34.092,-1.818c-10.852,5.762 -17.593,16.974 -17.593,29.259l0,198.256c0,12.286 6.741,23.497 17.593,29.258c4.887,2.595 10.222,3.88 15.54,3.88c6.491,0 12.957,-1.914 18.551,-5.698l146.584,-99.128c9.123,-6.169 14.57,-16.428 14.57,-27.441c0.001,-11.012 -5.446,-21.27 -14.569,-27.44zm-11.428,37.984l-146.584,99.128c-3.969,2.684 -8.865,2.947 -13.099,0.699c-4.232,-2.247 -6.759,-6.449 -6.759,-11.242l0,-198.256c0,-4.792 2.526,-8.995 6.759,-11.242c1.911,-1.014 3.957,-1.518 5.992,-1.518c2.473,0 4.929,0.744 7.108,2.216l146.583,99.126c3.559,2.406 5.598,6.249 5.598,10.544c0,4.296 -2.041,8.139 -5.598,10.545z"/>
  <path id="svg_1" d="m437.02,74.98c-48.353,-48.352 -112.64,-74.98 -181.02,-74.98s-132.667,26.628 -181.02,74.98c-48.352,48.353 -74.98,112.64 -74.98,181.02s26.628,132.667 74.98,181.02c48.353,48.352 112.64,74.98 181.02,74.98s132.667,-26.628 181.02,-74.98c48.352,-48.353 74.98,-112.64 74.98,-181.02s-26.628,-132.667 -74.98,-181.02zm-181.02,416.622c-129.911,0 -235.602,-105.69 -235.602,-235.602s105.691,-235.602 235.602,-235.602s235.602,105.691 235.602,235.602s-105.691,235.602 -235.602,235.602z"/>
  <path id="svg_3" class="circle_buffer" d="m450.365,178.795c-21.665,-54.498 -65.541,-97.656 -120.378,-118.408c-5.269,-1.994 -11.155,0.661 -13.149,5.929c-1.995,5.268 0.66,11.155 5.929,13.149c49.49,18.728 89.089,57.68 108.643,106.866c1.589,3.998 5.424,6.434 9.48,6.434c1.253,0 2.528,-0.234 3.766,-0.724c5.234,-2.081 7.791,-8.012 5.709,-13.246z"/>
  <path id="svg_4" class="circle_buffer" d="m291.371,49.898c-11.604,-1.979 -23.504,-2.981 -35.371,-2.981c-5.633,0 -10.199,4.566 -10.199,10.199s4.566,10.199 10.199,10.199c10.721,0 21.468,0.906 31.943,2.691c0.579,0.099 1.157,0.147 1.726,0.147c4.88,0 9.195,-3.514 10.042,-8.486c0.946,-5.554 -2.788,-10.823 -8.34,-11.769z"/>
 </g>
</svg>
